HIERARCHY
ROOT Hips
{
	OFFSET 0.000000 0.000000 0.000000
	CHANNELS 6 Xposition Yposition Zposition Xrotation Yrotation Zrotation
	JOINT LeftUpLeg_virtual
	{
		OFFSET 0.000000 0.000000 0.000000
		CHANNELS 3 Xrotation Yrotation Zrotation
		JOINT LeftUpLeg
		{
			OFFSET 11.394100 -6.187798 -0.413800
			CHANNELS 3 Xrotation Yrotation Zrotation
			JOINT LeftLeg
			{
				OFFSET 0.430247 -32.302673 3.732800
				CHANNELS 3 Xrotation Yrotation Zrotation
				JOINT LeftFoot
				{
					OFFSET -0.430247 -48.264931 -6.423300
					CHANNELS 3 Xrotation Yrotation Zrotation
					JOINT LeftToeBase
					{
						OFFSET 4.230900 -16.068199 23.438400
						CHANNELS 3 Xrotation Yrotation Zrotation
						JOINT LeftToe_End
						{
							OFFSET 4.510700 0.695400 19.974600
							CHANNELS 3 Xrotation Yrotation Zrotation
							End Site
							{
								OFFSET 0 0 0
							}
						}
					}
				}
			}
		}
	}
	JOINT RightUpLeg_virtual
	{
		OFFSET 0.000000 0.000000 0.000000
		CHANNELS 3 Xrotation Yrotation Zrotation
		JOINT RightUpLeg
		{
			OFFSET -11.333700 -6.187798 -0.413800
			CHANNELS 3 Xrotation Yrotation Zrotation
			JOINT RightLeg
			{
				OFFSET -0.430392 -32.302628 3.733000
				CHANNELS 3 Xrotation Yrotation Zrotation
				JOINT RightFoot
				{
					OFFSET 0.430392 -48.264973 -6.423500
					CHANNELS 3 Xrotation Yrotation Zrotation
					JOINT RightToeBase
					{
						OFFSET -4.230900 -16.068199 23.438400
						CHANNELS 3 Xrotation Yrotation Zrotation
						JOINT RightToe_End
						{
							OFFSET -4.510700 0.695400 19.974600
							CHANNELS 3 Xrotation Yrotation Zrotation
							End Site
							{
								OFFSET 0 0 0
							}
						}
					}
				}
			}
		}
	}
	JOINT Spine_virtual
	{
		OFFSET 0.000000 0.000000 0.000000
		CHANNELS 3 Xrotation Yrotation Zrotation
		JOINT Spine
		{
			OFFSET -0.002400 12.777504 0.315300
			CHANNELS 3 Xrotation Yrotation Zrotation
			JOINT Spine1
			{
				OFFSET -0.002067 5.816869 0.032633
				CHANNELS 3 Xrotation Yrotation Zrotation
				JOINT Spine1_split
				{
					OFFSET -0.002067 5.816869 0.032633
					CHANNELS 3 Xrotation Yrotation Zrotation
					JOINT Spine2
					{
						OFFSET -0.002067 5.816869 0.032633
						CHANNELS 3 Xrotation Yrotation Zrotation
						JOINT Neck_virtual
						{
							OFFSET 0.000000 0.000000 0.000000
							CHANNELS 3 Xrotation Yrotation Zrotation
							JOINT Neck
							{
								OFFSET -0.003700 21.199493 -0.826900
								CHANNELS 3 Xrotation Yrotation Zrotation
								JOINT Head
								{
									OFFSET 0.000000 20.442200 4.834800
									CHANNELS 3 Xrotation Yrotation Zrotation
									JOINT HeadTop_End
									{
										OFFSET 0.000000 34.668396 4.968400
										CHANNELS 3 Xrotation Yrotation Zrotation
										End Site
										{
											OFFSET 0 0 0
										}
									}
								}
							}
						}
						JOINT LeftShoulder_virtual
						{
							OFFSET 0.000000 0.000000 0.000000
							CHANNELS 3 Xrotation Yrotation Zrotation
							JOINT LeftShoulder
							{
								OFFSET 3.288150 8.794197 -1.372250
								CHANNELS 3 Xrotation Yrotation Zrotation
								JOINT LeftShoulder_split
								{
									OFFSET 3.288150 8.794197 -1.372250
									CHANNELS 3 Xrotation Yrotation Zrotation
									JOINT LeftArm
									{
										OFFSET 11.953299 -2.279007 -0.146200
										CHANNELS 3 Xrotation Yrotation Zrotation
										JOINT LeftForeArm
										{
											OFFSET 18.448900 0.000000 0.000000
											CHANNELS 3 Xrotation Yrotation Zrotation
											JOINT LeftHand
											{
												OFFSET 29.527798 0.000000 0.000000
												CHANNELS 3 Xrotation Yrotation Zrotation
												End Site
												{
													OFFSET 0 0 0
												}
											}
										}
									}
								}
							}
						}
						JOINT RightShoulder_virtual
						{
							OFFSET 0.000000 0.000000 0.000000
							CHANNELS 3 Xrotation Yrotation Zrotation
							JOINT RightShoulder
							{
								OFFSET -3.249400 8.794197 -1.372250
								CHANNELS 3 Xrotation Yrotation Zrotation
								JOINT RightShoulder_split
								{
									OFFSET -3.249400 8.794197 -1.372250
									CHANNELS 3 Xrotation Yrotation Zrotation
									JOINT RightArm
									{
										OFFSET -11.953299 -2.279007 -0.146200
										CHANNELS 3 Xrotation Yrotation Zrotation
										JOINT RightForeArm
										{
											OFFSET -18.448900 0.000000 0.000000
											CHANNELS 3 Xrotation Yrotation Zrotation
											JOINT RightHand
											{
												OFFSET -29.527802 0.000000 0.000000
												CHANNELS 3 Xrotation Yrotation Zrotation
												End Site
												{
													OFFSET 0 0 0
												}
											}
										}
									}
								}
							}
						}
					}
				}
			}
		}
	}
}
MOTION
Frames: 9
Frame Time: 0.03333333
-19.612400 83.918907 -20.069340 0.000000 0.000000 0.000000 36.134354 11.767548 -2.975208 -67.471395 -12.592361 21.013299 31.900033 -11.033547 3.388812 10.734740 14.440618 -32.678077 9.420314 -7.149359 1.853995 0.000000 0.000000 0.000000 37.333729 10.918669 -3.135955 -64.729812 -5.795799 -17.395467 45.474030 7.479617 -6.916130 -10.024136 -16.302593 27.639342 7.785072 13.748620 -8.227879 0.000000 0.000000 0.000000 38.130887 15.360021 -6.268458 14.135519 1.199873 2.537867 4.914476 1.180402 1.420416 0.141397 -0.303190 0.066250 0.000000 0.000000 0.000000 5.094589 3.954750 1.499237 -2.740091 -1.566174 -0.083296 -9.890768 -56.171882 -7.022332 0.000000 0.000000 0.000000 3.462313 2.427315 -0.084124 1.177570 -22.336788 -4.450568 3.450695 2.955234 -6.209744 19.704845 -14.185256 -49.494477 -4.504089 -69.140188 -1.400463 0.000000 0.000000 0.000000 6.070857 3.294513 1.704755 0.674357 23.391689 9.233506 0.516789 1.019048 4.088194 13.801608 39.430457 11.331382 -20.719478 30.421041 10.593053 0.000000 0.000000 0.000000 
-18.746912 82.406487 -20.092304 0.000000 0.000000 0.000000 38.375083 12.453673 -2.854566 -71.296008 -12.645874 19.893705 34.508933 -11.628898 3.696142 10.192110 13.297703 -32.479622 9.000275 -7.072073 2.249170 0.000000 0.000000 0.000000 39.604872 10.913470 -2.733482 -68.502768 -5.024361 -18.544411 47.635747 8.210543 -7.496489 -9.946484 -16.008884 28.928430 7.453409 14.337643 -9.138087 0.000000 0.000000 0.000000 40.550874 15.557178 -5.983387 14.576288 1.746125 2.895980 5.103050 1.381043 1.441961 0.102818 -0.265026 0.065309 0.000000 0.000000 0.000000 5.361828 4.106314 1.472456 -4.111491 -1.598333 -0.163776 -12.819924 -56.256594 -9.677149 0.000000 0.000000 0.000000 3.691727 2.608528 -0.054670 1.265277 -23.369477 -4.032291 3.512435 2.955401 -6.391310 19.601707 -14.675934 -49.128670 -6.972296 -70.402448 -3.676543 0.000000 0.000000 0.000000 6.238413 3.441532 1.713795 1.371588 24.178200 8.068242 0.106284 1.193756 3.803587 10.700141 39.068880 9.611844 -21.840841 31.086821 10.841441 0.000000 0.000000 0.000000 
-17.792099 80.880928 -19.952251 0.000000 0.000000 0.000000 40.583287 13.431033 -2.619347 -74.952194 -12.474550 18.620689 36.843751 -12.153474 3.944309 9.398631 12.164459 -31.970801 8.545587 -7.014978 2.639022 0.000000 0.000000 0.000000 41.663628 11.212104 -2.200164 -72.015343 -4.294337 -20.031575 50.213034 8.987067 -8.134818 -10.318946 -15.845301 30.339048 7.337821 15.046350 -10.242773 0.000000 0.000000 0.000000 42.957058 16.139028 -5.605167 14.948789 2.215632 3.175491 5.332918 1.647356 1.424375 0.082549 -0.253801 0.055669 0.000000 0.000000 0.000000 5.657433 4.331921 1.425646 -5.323820 -1.680982 0.033754 -16.202310 -56.681807 -12.553110 0.000000 0.000000 0.000000 3.943618 2.849586 -0.041422 1.332170 -24.362221 -3.564233 3.795301 2.607163 -6.473467 20.347270 -16.155411 -49.042059 -9.328009 -71.386972 -5.910511 0.000000 0.000000 0.000000 6.447714 3.659617 1.695760 2.055206 24.787373 7.032432 -0.450698 1.302029 3.747137 6.524423 38.426685 8.630962 -22.737964 31.648289 10.885150 0.000000 0.000000 0.000000 
-16.790161 79.207039 -19.673946 0.000000 0.000000 0.000000 42.624383 14.643567 -2.284337 -78.480315 -12.281862 17.249762 39.164271 -12.721195 4.130335 8.490033 11.096164 -31.378856 7.989173 -6.957381 2.865302 0.000000 0.000000 0.000000 43.499303 11.947426 -1.632536 -75.163903 -3.503101 -21.760344 53.231387 9.692868 -8.812984 -11.455028 -16.058668 31.523601 7.817241 15.773342 -11.295793 0.000000 0.000000 0.000000 45.213411 17.088479 -5.167296 15.298236 2.585708 3.375466 5.655357 1.968206 1.370777 0.072688 -0.262970 0.051089 0.000000 0.000000 0.000000 6.005941 4.612627 1.366961 -6.386821 -1.812831 0.523711 -19.991141 -57.443100 -15.615860 0.000000 0.000000 0.000000 4.249575 3.134833 -0.049281 1.392006 -25.175111 -2.988090 4.196765 2.192817 -6.412959 21.617489 -18.158300 -49.138888 -11.302320 -72.144167 -7.802384 0.000000 0.000000 0.000000 6.731930 3.923630 1.647835 2.682633 25.271686 6.189774 -1.022303 1.276293 3.965718 2.046593 37.550191 7.748586 -23.555398 32.520351 10.980551 0.000000 0.000000 0.000000 
-15.807721 77.283325 -19.328426 0.000000 0.000000 0.000000 44.378638 16.068406 -1.874816 -81.936896 -12.227572 15.825897 41.783542 -13.298234 4.247456 7.402009 10.224162 -30.739984 7.383604 -6.888534 2.858566 0.000000 0.000000 0.000000 45.141349 13.176357 -1.133331 -77.854608 -2.507088 -23.572906 56.747370 10.270014 -9.533494 -13.250915 -16.736245 32.424588 8.312281 16.498745 -11.967538 0.000000 0.000000 0.000000 47.266323 18.288209 -4.705862 15.672303 2.838204 3.522471 6.112325 2.318915 1.294770 0.076152 -0.285388 0.058898 0.000000 0.000000 0.000000 6.430836 4.913398 1.293634 -7.407214 -1.973001 1.269272 -24.180833 -58.345422 -18.829124 0.000000 0.000000 0.000000 4.639753 3.424555 -0.067543 1.479959 -25.696674 -2.187333 4.545580 1.877965 -6.251592 22.960895 -20.122622 -49.308737 -12.915920 -72.739329 -9.310478 0.000000 0.000000 0.000000 7.132597 4.192431 1.583474 3.228998 25.707765 5.547181 -1.553826 1.115691 4.428809 -1.879610 36.630014 6.169943 -24.450095 33.871243 11.403421 0.000000 0.000000 0.000000 
-14.849178 75.105446 -18.918400 0.000000 0.000000 0.000000 45.843031 17.606464 -1.447626 -85.333324 -12.417298 14.421067 44.856779 -13.949215 4.331364 6.160455 9.564195 -30.153482 6.828603 -6.789014 2.633640 0.000000 0.000000 0.000000 46.602073 14.732780 -0.746126 -80.054748 -1.268772 -25.350201 60.804530 10.718687 -10.299756 -15.312041 -17.863549 33.229745 8.101988 17.244334 -11.967372 0.000000 0.000000 0.000000 49.106454 19.550107 -4.254349 16.107201 2.962558 3.656800 6.720954 2.671710 1.213444 0.106609 -0.311218 0.079617 0.000000 0.000000 0.000000 6.971558 5.194600 1.226503 -8.512420 -2.127776 2.249563 -28.704956 -59.130150 -22.138286 0.000000 0.000000 0.000000 5.152349 3.683916 -0.080473 1.603972 -25.824880 -1.165044 4.722051 1.847296 -6.064391 23.879914 -21.724547 -49.548911 -14.153986 -73.205851 -10.378299 0.000000 0.000000 0.000000 7.683953 4.435077 1.516532 3.693905 26.217111 5.084672 -2.076009 0.804612 5.050482 -4.851737 35.716289 3.522850 -25.436342 35.317638 12.187136 0.000000 0.000000 0.000000 
-13.945340 72.721664 -18.450672 0.000000 0.000000 0.000000 47.082328 19.219003 -1.112826 -88.620482 -12.798876 13.177580 48.239830 -14.643401 4.362602 4.769643 9.055224 -29.674641 6.258164 -6.660214 2.344276 0.000000 0.000000 0.000000 47.874937 16.352906 -0.437858 -81.746299 0.170646 -26.968585 65.105131 11.051407 -11.101741 -17.504684 -19.416104 33.994364 7.205999 17.966606 -11.214932 0.000000 0.000000 0.000000 50.676814 20.805786 -3.835809 16.608537 2.961299 3.824047 7.468412 2.994600 1.142114 0.121961 -0.327825 0.098108 0.000000 0.000000 0.000000 7.633641 5.423003 1.185362 -9.754261 -2.282133 3.421109 -33.299853 -59.596549 -25.337748 0.000000 0.000000 0.000000 5.807509 3.896956 -0.079805 1.738730 -25.514086 -0.037016 4.793589 1.932943 -5.737162 24.169113 -23.002617 -49.839224 -14.900326 -73.593991 -10.947977 0.000000 0.000000 0.000000 8.381889 4.637063 1.460465 4.092839 26.876735 4.718474 -2.497309 0.573568 5.419589 -7.125631 34.838780 -0.005357 -26.523004 36.332952 13.245610 0.000000 0.000000 0.000000 
-13.120464 70.283592 -17.944370 0.000000 0.000000 0.000000 48.188344 20.785162 -0.883707 -91.731476 -13.282972 12.179928 51.750328 -15.412021 4.396834 3.389466 8.607957 -29.361583 5.547721 -6.519816 2.177879 0.000000 0.000000 0.000000 48.942311 17.848580 -0.179899 -82.914911 1.664092 -28.409371 69.420376 11.245182 -11.881145 -19.937180 -21.333416 34.521415 6.009311 18.610175 -9.744053 0.000000 0.000000 0.000000 52.092739 22.012412 -3.511243 17.136219 2.851761 4.038941 8.324442 3.272767 1.078413 0.111728 -0.358588 0.101041 0.000000 0.000000 0.000000 8.387938 5.597323 1.174604 -11.155494 -2.474892 4.690609 -37.579233 -59.699173 -28.175743 0.000000 0.000000 0.000000 6.601803 4.060285 -0.071016 1.869715 -24.869451 1.108057 4.880531 1.949611 -5.363466 23.850761 -24.178921 -50.239108 -15.327378 -73.974678 -11.236023 0.000000 0.000000 0.000000 9.213598 4.807810 1.427258 4.455892 27.722797 4.402464 -3.000389 0.403177 5.590966 -9.268553 33.974382 -3.866379 -27.630169 36.563683 14.398105 0.000000 0.000000 0.000000 
-12.378598 67.974182 -17.371380 0.000000 0.000000 0.000000 49.241077 22.192673 -0.786329 -94.560615 -13.769183 11.462325 55.106881 -16.295552 4.498912 2.162744 8.179081 -29.265653 4.722324 -6.392081 2.277240 0.000000 0.000000 0.000000 49.831861 18.967538 0.119765 -83.610641 3.080515 -29.669802 73.498470 11.280769 -12.548249 -22.518458 -23.481750 34.756346 4.779992 19.167346 -7.810287 0.000000 0.000000 0.000000 53.412677 23.134290 -3.292294 17.621692 2.653955 4.299644 9.232514 3.498151 1.022946 0.096496 -0.383755 0.079063 0.000000 0.000000 0.000000 9.191967 5.727413 1.199505 -12.637242 -2.717893 5.977129 -41.201351 -59.593298 -30.517955 0.000000 0.000000 0.000000 7.479119 4.185929 -0.065331 1.976864 -24.017312 2.131851 5.128449 1.673624 -4.919918 22.918126 -25.468930 -50.837781 -15.341382 -74.310839 -11.254117 0.000000 0.000000 0.000000 10.120394 4.953701 1.411265 4.806427 28.679247 4.070438 -3.531314 0.467372 5.522023 -11.955644 33.104670 -7.233400 -28.784668 36.150217 15.531428 0.000000 0.000000 0.000000 
